nColumns=28
nRows=80
DataType=double
version=3
OpenSimVersion=4.1
endheader
time	ground_force_1_vx	ground_force_1_vy	ground_force_1_vz	ground_force_1_px	ground_force_1_py	ground_force_1_pz	ground_force_1_mx	ground_force_1_my	ground_force_1_mz	ground_force_2_vx	ground_force_2_vy	ground_force_2_vz	ground_force_2_px	ground_force_2_py	ground_force_2_pz	ground_force_2_mx	ground_force_2_my	ground_force_2_mz	ground_force_3_vx	ground_force_3_vy	ground_force_3_vz	ground_force_3_px	ground_force_3_py	ground_force_3_pz	ground_force_3_mx	ground_force_3_my	ground_force_3_mz
3.3	8.18685	404.949	-14.6277	-0.254645	0.006	-0.458994	0	-0.166901	0	-7.36007	104.26	18.1	-0.202666	0.006	-0.775441	0	1.62063	0	0	0	0	0	0	0	0	0	0
3.31	9.21303	409.101	-14.0606	-0.255611	0.006	-0.459323	0	-0.074604	0	-6.28522	106.566	18.477	-0.205399	0.006	-0.775111	0	1.63648	0	0	0	0	0	0	0	0	0	0
3.32	10.2643	413.312	-13.4927	-0.256454	0.006	-0.459635	0	0.021943	0	-5.33365	108.672	18.7652	-0.207854	0.006	-0.774725	0	1.65235	0	0	0	0	0	0	0	0	0	0
3.33	11.294	417.5	-12.9576	-0.257167	0.006	-0.459921	0	0.119562	0	-4.51757	110.543	18.9515	-0.21004	0.006	-0.77428	0	1.66844	0	0	0	0	0	0	0	0	0	0
3.34	12.2544	421.583	-12.4897	-0.257747	0.006	-0.460175	0	0.215523	0	-3.83615	112.178	19.0293	-0.211986	0.006	-0.773772	0	1.68525	0	0	0	0	0	0	0	0	0	0
3.35	13.1103	425.499	-12.1186	-0.258193	0.006	-0.460389	0	0.307754	0	-3.27931	113.601	18.9985	-0.213735	0.006	-0.7732	0	1.70341	0	0	0	0	0	0	0	0	0	0
3.36	13.8461	429.234	-11.8627	-0.258513	0.006	-0.460563	0	0.394759	0	-2.8325	114.85	18.8639	-0.215327	0.006	-0.772564	0	1.72367	0	0	0	0	0	0	0	0	0	0
3.37	14.4663	432.822	-11.7238	-0.258715	0.006	-0.460695	0	0.4755	0	-2.4808	115.963	18.6324	-0.216801	0.006	-0.771866	0	1.74689	0	0	0	0	0	0	0	0	0	0
3.38	14.9936	436.331	-11.6894	-0.258815	0.006	-0.46079	0	0.549378	0	-2.21172	116.968	18.3112	-0.218191	0.006	-0.771112	0	1.7739	0	0	0	0	0	0	0	0	0	0
3.39	15.4657	439.843	-11.7406	-0.258827	0.006	-0.460853	0	0.616181	0	-2.01641	117.885	17.9073	-0.219521	0.006	-0.770308	0	1.80548	0	0	0	0	0	0	0	0	0	0
3.4	15.9264	443.442	-11.857	-0.258766	0.006	-0.460889	0	0.675923	0	-1.88897	118.724	17.4275	-0.220815	0.006	-0.769463	0	1.84216	0	0	0	0	0	0	0	0	0	0
3.41	16.4145	447.194	-12.0206	-0.258644	0.006	-0.460904	0	0.728696	0	-1.82428	119.489	16.8793	-0.222089	0.006	-0.768587	0	1.88402	0	0	0	0	0	0	0	0	0	0
3.42	16.9539	451.132	-12.2187	-0.258469	0.006	-0.4609	0	0.774523	0	-1.81545	120.18	16.2702	-0.223356	0.006	-0.767692	0	1.93064	0	0	0	0	0	0	0	0	0	0
3.43	17.5468	455.264	-12.4455	-0.258244	0.006	-0.460882	0	0.81337	0	-1.8524	120.793	15.6085	-0.224622	0.006	-0.766788	0	1.98128	0	0	0	0	0	0	0	0	0	0
3.44	18.1762	459.586	-12.6986	-0.257968	0.006	-0.460851	0	0.845112	0	-1.92368	121.321	14.9035	-0.225889	0.006	-0.765885	0	2.035	0	0	0	0	0	0	0	0	0	0
3.45	18.8146	464.103	-12.9757	-0.257638	0.006	-0.460807	0	0.869426	0	-2.02044	121.763	14.1668	-0.227146	0.006	-0.764994	0	2.09077	0	0	0	0	0	0	0	0	0	0
3.46	19.4313	468.834	-13.2734	-0.257252	0.006	-0.46075	0	0.885775	0	-2.13985	122.124	13.4121	-0.228373	0.006	-0.764129	0	2.1475	0	0	0	0	0	0	0	0	0	0
3.47	19.9982	473.811	-13.5861	-0.256811	0.006	-0.460683	0	0.893497	0	-2.28665	122.407	12.6545	-0.229535	0.006	-0.763304	0	2.20429	0	0	0	0	0	0	0	0	0	0
3.48	20.4913	479.066	-13.9066	-0.256315	0.006	-0.460607	0	0.891818	0	-2.47265	122.613	11.9083	-0.230588	0.006	-0.762537	0	2.26038	0	0	0	0	0	0	0	0	0	0
3.49	20.8901	484.617	-14.2273	-0.255767	0.006	-0.460526	0	0.879845	0	-2.71477	122.745	11.1859	-0.231485	0.006	-0.761844	0	2.31535	0	0	0	0	0	0	0	0	0	0
3.5	21.1749	490.454	-14.5411	-0.255173	0.006	-0.46044	0	0.856656	0	-3.03083	122.813	10.4981	-0.232183	0.006	-0.761239	0	2.36916	0	0	0	0	0	0	0	0	0	0
3.51	21.3231	496.525	-14.8434	-0.254533	0.006	-0.460352	0	0.821279	0	-3.43499	122.842	9.85442	-0.232646	0.006	-0.760733	0	2.42223	0	0	0	0	0	0	0	0	0	0
3.52	21.3078	502.753	-15.1312	-0.253852	0.006	-0.460262	0	0.772732	0	-3.93485	122.873	9.26327	-0.232857	0.006	-0.760336	0	2.47541	0	0	0	0	0	0	0	0	0	0
3.53	21.0975	509.034	-15.4027	-0.25313	0.006	-0.460172	0	0.710133	0	-4.52987	122.959	8.73153	-0.232812	0.006	-0.760056	0	2.52992	0	0	0	0	0	0	0	0	0	0
3.54	20.6602	515.252	-15.6558	-0.252369	0.006	-0.460081	0	0.632843	0	-5.2111	123.159	8.26415	-0.232526	0.006	-0.759898	0	2.58723	0	0	0	0	0	0	0	0	0	0
3.55	19.9721	521.291	-15.886	-0.251572	0.006	-0.459993	0	0.540602	0	-5.96243	123.524	7.86356	-0.232027	0.006	-0.759858	0	2.64891	0	0	0	0	0	0	0	0	0	0
3.56	19.025	527.042	-16.0846	-0.250744	0.006	-0.459909	0	0.433688	0	-6.76203	124.095	7.52908	-0.231352	0.006	-0.759933	0	2.71638	0	0	0	0	0	0	0	0	0	0
3.57	17.8287	532.411	-16.2376	-0.249895	0.006	-0.459832	0	0.31315	0	-7.58332	124.892	7.25648	-0.230549	0.006	-0.760112	0	2.79071	0	0	0	0	0	0	0	0	0	0
3.58	16.4096	537.317	-16.3278	-0.249036	0.006	-0.459767	0	0.180865	0	-8.39559	125.919	7.03785	-0.229669	0.006	-0.76038	0	2.87245	0	0	0	0	0	0	0	0	0	0
3.59	14.8069	541.694	-16.338	-0.24818	0.006	-0.459716	0	0.039513	0	-9.16571	127.171	6.86187	-0.228768	0.006	-0.760716	0	2.96177	0	0	0	0	0	0	0	0	0	0
3.6	13.07	545.495	-16.2531	-0.247341	0.006	-0.459686	0	-0.107443	0	-9.86147	128.633	6.71541	-0.227898	0.006	-0.761095	0	3.05862	0	0	0	0	0	0	0	0	0	0
3.61	11.2558	548.692	-16.0613	-0.246535	0.006	-0.45968	0	-0.255754	0	-10.455	130.291	6.58584	-0.227109	0.006	-0.76149	0	3.16269	0	0	0	0	0	0	0	0	0	0
3.62	9.42522	551.278	-15.7539	-0.245779	0.006	-0.459702	0	-0.400633	0	-10.9255	132.123	6.46181	-0.226442	0.006	-0.761879	0	3.27324	0	0	0	0	0	0	0	0	0	0
3.63	7.64047	553.276	-15.324	-0.245087	0.006	-0.459757	0	-0.537127	0	-11.2609	134.106	6.33266	-0.22593	0.006	-0.762242	0	3.38927	0	0	0	0	0	0	0	0	0	0
3.64	5.96016	554.729	-14.7648	-0.244476	0.006	-0.459849	0	-0.660583	0	-11.4574	136.208	6.18754	-0.225596	0.006	-0.762561	0	3.50958	0	0	0	0	0	0	0	0	0	0
3.65	4.43634	555.696	-14.0696	-0.243958	0.006	-0.459979	0	-0.767128	0	-11.5179	138.392	6.0143	-0.225453	0.006	-0.762823	0	3.6327	0	0	0	0	0	0	0	0	0	0
3.66	3.11266	556.231	-13.2336	-0.243544	0.006	-0.460151	0	-0.853892	0	-11.4487	140.61	5.79948	-0.225506	0.006	-0.763015	0	3.75679	0	0	0	0	0	0	0	0	0	0
3.67	2.02376	556.384	-12.2558	-0.243241	0.006	-0.460364	0	-0.919297	0	-11.2556	142.81	5.52936	-0.225753	0.006	-0.763129	0	3.8796	0	0	0	0	0	0	0	0	0	0
3.68	1.19683	556.197	-11.1398	-0.243052	0.006	-0.46062	0	-0.963068	0	-10.9419	144.945	5.19227	-0.226186	0.006	-0.763158	0	3.99847	0	0	0	0	0	0	0	0	0	0
3.69	0.652952	555.716	-9.89394	-0.242976	0.006	-0.460914	0	-0.986111	0	-10.507	146.976	4.78046	-0.226794	0.006	-0.763102	0	4.1107	0	0	0	0	0	0	0	0	0	0
3.7	0.406401	554.989	-8.53154	-0.243011	0.006	-0.461243	0	-0.990507	0	-9.94855	148.879	4.29256	-0.227557	0.006	-0.762963	0	4.21371	0	0	0	0	0	0	0	0	0	0
3.71	0.462988	554.065	-7.06994	-0.243149	0.006	-0.461603	0	-0.979326	0	-9.26822	150.644	3.73483	-0.228449	0.006	-0.762751	0	4.3053	0	0	0	0	0	0	0	0	0	0
3.72	0.816728	552.987	-5.53065	-0.24338	0.006	-0.461984	0	-0.956561	0	-8.4762	152.275	3.12114	-0.229436	0.006	-0.762481	0	4.38403	0	0	0	0	0	0	0	0	0	0
3.73	1.44626	551.79	-3.93879	-0.243691	0.006	-0.46238	0	-0.927006	0	-7.59424	153.78	2.47136	-0.230478	0.006	-0.762175	0	4.44943	0	0	0	0	0	0	0	0	0	0
3.74	2.31448	550.489	-2.32154	-0.244063	0.006	-0.462781	0	-0.8959	0	-6.65459	155.177	1.80885	-0.231533	0.006	-0.761856	0	4.50193	0	0	0	0	0	0	0	0	0	0
3.75	3.3709	549.083	-0.707666	-0.244476	0.006	-0.463178	0	-0.868492	0	-5.69559	156.484	1.15882	-0.232557	0.006	-0.76155	0	4.54277	0	0	0	0	0	0	0	0	0	0
3.76	4.55549	547.556	0.872763	-0.244908	0.006	-0.46356	0	-0.849739	0	-4.75711	157.731	0.54693	-0.23351	0.006	-0.761281	0	4.57377	0	0	0	0	0	0	0	0	0	0
3.77	5.80151	545.878	2.38896	-0.245333	0.006	-0.463919	0	-0.843997	0	-3.87693	158.948	-0.00235257	-0.234357	0.006	-0.76107	0	4.59719	0	0	0	0	0	0	0	0	0	0
3.78	7.03928	544.02	3.81061	-0.24573	0.006	-0.464245	0	-0.854724	0	-3.08878	160.165	-0.467314	-0.235068	0.006	-0.760937	0	4.6155	0	0	0	0	0	0	0	0	0	0
3.79	8.20128	541.954	5.11015	-0.246075	0.006	-0.464531	0	-0.884349	0	-2.42186	161.4	-0.831189	-0.235623	0.006	-0.760892	0	4.63109	0	0	0	0	0	0	0	0	0	0
3.8	9.22731	539.658	6.2652	-0.246353	0.006	-0.464771	0	-0.934177	0	-1.89972	162.657	-1.08544	-0.23601	0.006	-0.760937	0	4.64601	0	0	0	0	0	0	0	0	0	0
3.81	10.0695	537.12	7.26073	-0.246551	0.006	-0.46496	0	-1.00435	0	-1.5381	163.926	-1.23178	-0.236226	0.006	-0.761065	0	4.66185	0	0	0	0	0	0	0	0	0	0
3.82	10.6956	534.341	8.09121	-0.246661	0.006	-0.465099	0	-1.09395	0	-1.34339	165.183	-1.28175	-0.236274	0.006	-0.761262	0	4.67962	0	0	0	0	0	0	0	0	0	0
3.83	11.0907	531.344	8.76178	-0.246683	0.006	-0.465187	0	-1.2011	0	-1.31143	166.399	-1.25427	-0.236166	0.006	-0.76151	0	4.69968	0	0	0	0	0	0	0	0	0	0
3.84	11.2561	528.171	9.28703	-0.24662	0.006	-0.46523	0	-1.32314	0	-1.42694	167.547	-1.17202	-0.235919	0.006	-0.76179	0	4.72183	0	0	0	0	0	0	0	0	0	0
3.85	11.207	524.882	9.68842	-0.246484	0.006	-0.465233	0	-1.45703	0	-1.66487	168.605	-1.0575	-0.235557	0.006	-0.762082	0	4.74536	0	0	0	0	0	0	0	0	0	0
3.86	10.9702	521.547	9.99087	-0.246284	0.006	-0.465203	0	-1.59969	0	-1.99395	169.559	-0.929909	-0.235101	0.006	-0.762372	0	4.76928	0	0	0	0	0	0	0	0	0	0
3.87	10.5801	518.238	10.2192	-0.246036	0.006	-0.465147	0	-1.74809	0	-2.38124	170.404	-0.804946	-0.234574	0.006	-0.762646	0	4.79257	0	0	0	0	0	0	0	0	0	0
3.88	10.0726	515.024	10.3959	-0.245755	0.006	-0.465073	0	-1.89915	0	-2.79662	171.135	-0.695341	-0.233996	0.006	-0.762896	0	4.81396	0	0	0	0	0	0	0	0	0	0
3.89	9.47944	511.954	10.5386	-0.245453	0.006	-0.464988	0	-2.04993	0	-3.21532	171.751	-0.610818	-0.233383	0.006	-0.76312	0	4.83207	0	0	0	0	0	0	0	0	0	0
3.9	8.82524	509.061	10.658	-0.245143	0.006	-0.464898	0	-2.19776	0	-3.6185	172.246	-0.557307	-0.23275	0.006	-0.763316	0	4.84551	0	0	0	0	0	0	0	0	0	0
3.91	8.12793	506.359	10.7589	-0.244834	0.006	-0.464806	0	-2.34043	0	-3.99265	172.618	-0.536457	-0.232104	0.006	-0.763484	0	4.85305	0	0	0	0	0	0	0	0	0	0
3.92	7.4019	503.854	10.8409	-0.244532	0.006	-0.464716	0	-2.47622	0	-4.33016	172.859	-0.546278	-0.231453	0.006	-0.763626	0	4.85353	0	0	0	0	0	0	0	0	0	0
3.93	6.65976	501.544	10.9001	-0.244245	0.006	-0.464628	0	-2.60395	0	-4.62976	172.958	-0.582686	-0.230798	0.006	-0.763742	0	4.84617	0	0	0	0	0	0	0	0	0	0
3.94	5.91209	499.43	10.9295	-0.243975	0.006	-0.464543	0	-2.72293	0	-4.89576	172.904	-0.641442	-0.230142	0.006	-0.763834	0	4.83087	0	0	0	0	0	0	0	0	0	0
3.95	5.16746	497.517	10.9207	-0.243728	0.006	-0.464459	0	-2.83271	0	-5.13593	172.687	-0.719219	-0.22949	0.006	-0.763902	0	4.80811	0	0	0	0	0	0	0	0	0	0
3.96	4.43331	495.817	10.8645	-0.243507	0.006	-0.464374	0	-2.93299	0	-5.35859	172.302	-0.81365	-0.228847	0.006	-0.763943	0	4.77872	0	0	0	0	0	0	0	0	0	0
3.97	3.71635	494.351	10.7525	-0.243313	0.006	-0.464287	0	-3.02361	0	-5.56954	171.756	-0.922785	-0.228219	0.006	-0.763954	0	4.74378	0	0	0	0	0	0	0	0	0	0
3.98	3.02251	493.143	10.5781	-0.243151	0.006	-0.464197	0	-3.10448	0	-5.77073	171.063	-1.04478	-0.227614	0.006	-0.763932	0	4.70459	0	0	0	0	0	0	0	0	0	0
3.99	2.35781	492.22	10.3367	-0.243023	0.006	-0.464106	0	-3.17576	0	-5.95938	170.247	-1.17775	-0.227044	0.006	-0.763875	0	4.66249	0	0	0	0	0	0	0	0	0	0
4	1.72902	491.612	10.0265	-0.242931	0.006	-0.464011	0	-3.23781	0	-6.12839	169.343	-1.3194	-0.226522	0.006	-0.76378	0	4.61874	0	0	0	0	0	0	0	0	0	0
4.01	1.14383	491.346	9.64853	-0.242878	0.006	-0.463915	0	-3.29094	0	-6.26796	168.386	-1.46604	-0.22606	0.006	-0.76365	0	4.57444	0	0	0	0	0	0	0	0	0	0
4.02	0.610883	491.449	9.20658	-0.242867	0.006	-0.463816	0	-3.33542	0	-6.36788	167.413	-1.61216	-0.225667	0.006	-0.763488	0	4.5303	0	0	0	0	0	0	0	0	0	0
4.03	0.139211	491.94	8.70627	-0.2429	0.006	-0.463718	0	-3.37142	0	-6.4193	166.457	-1.75094	-0.225352	0.006	-0.763299	0	4.48655	0	0	0	0	0	0	0	0	0	0
4.04	-0.263185	492.824	8.1546	-0.242979	0.006	-0.46362	0	-3.39901	0	-6.41583	165.546	-1.87458	-0.225117	0.006	-0.763091	0	4.44311	0	0	0	0	0	0	0	0	0	0
4.05	-0.590827	494.088	7.55918	-0.243105	0.006	-0.463525	0	-3.41809	0	-6.35393	164.703	-1.97425	-0.224965	0.006	-0.762874	0	4.39964	0	0	0	0	0	0	0	0	0	0
4.06	-0.840243	495.706	6.92707	-0.243277	0.006	-0.463432	0	-3.42854	0	-6.23261	163.95	-2.04022	-0.224895	0.006	-0.762656	0	4.35558	0	0	0	0	0	0	0	0	0	0
4.07	-1.00909	497.644	6.26337	-0.243495	0.006	-0.463344	0	-3.43025	0	-6.05328	163.304	-2.06242	-0.224903	0.006	-0.762448	0	4.31032	0	0	0	0	0	0	0	0	0	0
4.08	-1.09599	499.859	5.57135	-0.243754	0.006	-0.463258	0	-3.42316	0	-5.81949	162.778	-2.03142	-0.224985	0.006	-0.762258	0	4.26332	0	0	0	0	0	0	0	0	0	0
4.09	-1.10212	502.297	4.85273	-0.244052	0.006	-0.463175	0	-3.40728	0	-5.53669	162.378	-1.93931	-0.225135	0.006	-0.762095	0	4.21408	0	0	0	0	0	0	0	0	0	0
